<?xml version="1.0" encoding="UTF-8"?>
<!DOCTYPE svg PUBLIC "-//W3C//DTD SVG 1.1//EN" "http://www.w3.org/Graphics/SVG/1.1/DTD/svg11.dtd">
<svg xmlns="http://www.w3.org/2000/svg" version="1.1" width="192px" height="192px" style="shape-rendering:geometricPrecision; text-rendering:geometricPrecision; image-rendering:optimizeQuality; fill-rule:evenodd; clip-rule:evenodd" xmlns:xlink="http://www.w3.org/1999/xlink">
<g><path style="opacity:1" fill="#212529" d="M -0.5,-0.5 C 63.5,-0.5 127.5,-0.5 191.5,-0.5C 191.5,63.5 191.5,127.5 191.5,191.5C 127.5,191.5 63.5,191.5 -0.5,191.5C -0.5,127.5 -0.5,63.5 -0.5,-0.5 Z"/></g>
<g><path style="opacity:1" fill="#1a68eb" d="M 15.5,81.5 C 18.8984,81.1796 22.2317,81.513 25.5,82.5C 24.675,83.3857 23.675,83.719 22.5,83.5C 22.5,86.5 22.5,89.5 22.5,92.5C 21.1667,92.5 19.8333,92.5 18.5,92.5C 18.5,89.5 18.5,86.5 18.5,83.5C 16.8212,83.7148 15.8212,83.0481 15.5,81.5 Z"/></g>
<g><path style="opacity:1" fill="#f0ffee" d="M 46.5,81.5 C 47.675,81.281 48.675,81.6143 49.5,82.5C 47.9483,83.7979 46.9483,83.4646 46.5,81.5 Z"/></g>
<g><path style="opacity:1" fill="#1b68ed" d="M 77.5,81.5 C 80.6646,80.9635 83.3312,81.7969 85.5,84C 83.3435,84.0781 81.3435,84.2448 79.5,84.5C 81.5668,85.1341 83.4002,86.1341 85,87.5C 85.7112,89.3668 85.2112,90.8668 83.5,92C 80.6529,92.9439 78.1529,92.4439 76,90.5C 75.4092,89.5165 75.7425,88.8499 77,88.5C 78.2853,88.9504 79.452,89.6171 80.5,90.5C 80.8333,90.1667 81.1667,89.8333 81.5,89.5C 79.5781,88.289 77.7448,86.9557 76,85.5C 75.7003,83.9343 76.2003,82.601 77.5,81.5 Z"/></g>
<g><path style="opacity:1" fill="#ecf1eb" d="M 122.5,81.5 C 123.5,81.5 124.5,81.5 125.5,81.5C 125.5,85.1667 125.5,88.8333 125.5,92.5C 118.893,94.251 116.393,91.9177 118,85.5C 119.356,84.6198 120.856,84.2865 122.5,84.5C 122.5,83.5 122.5,82.5 122.5,81.5 Z"/></g>
<g><path style="opacity:1" fill="#1a68eb" d="M 131.5,81.5 C 134.898,81.1796 138.232,81.513 141.5,82.5C 140.675,83.3857 139.675,83.719 138.5,83.5C 138.5,86.5 138.5,89.5 138.5,92.5C 137.167,92.5 135.833,92.5 134.5,92.5C 134.5,89.5 134.5,86.5 134.5,83.5C 132.821,83.7148 131.821,83.0481 131.5,81.5 Z"/></g>
<g><path style="opacity:1" fill="#f3e2d5" d="M 165.5,81.5 C 166.306,82.8675 167.306,84.2008 168.5,85.5C 165.833,87.5 165.833,89.5 168.5,91.5C 166.955,92.4519 165.288,92.7852 163.5,92.5C 163.84,89.8559 163.173,87.5225 161.5,85.5C 162.881,84.1186 164.215,82.7853 165.5,81.5 Z"/></g>
<g><path style="opacity:1" fill="#f0f2e5" d="M 36.5,84.5 C 38.4771,85.1495 40.3105,85.1495 42,84.5C 45.0723,85.4473 46.0723,87.4473 45,90.5C 43.5557,92.1554 41.7224,92.822 39.5,92.5C 39.5,93.5 39.5,94.5 39.5,95.5C 38.5,95.5 37.5,95.5 36.5,95.5C 36.5,91.8333 36.5,88.1667 36.5,84.5 Z"/></g>
<g><path style="opacity:1" fill="#f0ffee" d="M 46.5,84.5 C 47.5,84.5 48.5,84.5 49.5,84.5C 49.5,87.1667 49.5,89.8333 49.5,92.5C 48.5,92.5 47.5,92.5 46.5,92.5C 46.5,89.8333 46.5,87.1667 46.5,84.5 Z"/></g>
<g><path style="opacity:1" fill="#eaf6ed" d="M 51.5,84.5 C 54.1667,84.5 56.8333,84.5 59.5,84.5C 59.5,87.1667 59.5,89.8333 59.5,92.5C 58.5,92.5 57.5,92.5 56.5,92.5C 55.8333,84.5 55.1667,84.5 54.5,92.5C 53.5,92.5 52.5,92.5 51.5,92.5C 51.5,89.8333 51.5,87.1667 51.5,84.5 Z"/></g>
<g><path style="opacity:1" fill="#f4f5ee" d="M 62.5,84.5 C 64.8333,84.5 67.1667,84.5 69.5,84.5C 69.665,87.8499 69.4983,91.1832 69,94.5C 66.38,95.9233 63.88,95.7566 61.5,94C 63.2556,93.7978 64.9223,93.2978 66.5,92.5C 65.1524,92.5504 63.6524,92.217 62,91.5C 61.2967,89.0709 61.4634,86.7375 62.5,84.5 Z"/></g>
<g><path style="opacity:1" fill="#f0f2e5" d="M 87.5,84.5 C 89.4771,85.1495 91.3105,85.1495 93,84.5C 96.0723,85.4473 97.0723,87.4473 96,90.5C 94.5557,92.1554 92.7224,92.822 90.5,92.5C 90.5,93.5 90.5,94.5 90.5,95.5C 89.5,95.5 88.5,95.5 87.5,95.5C 87.5,91.8333 87.5,88.1667 87.5,84.5 Z"/></g>
<g><path style="opacity:1" fill="#ece5df" d="M 99.5,84.5 C 103.851,83.533 106.185,85.1996 106.5,89.5C 98.5272,89.6737 98.5272,90.1737 106.5,91C 98.1585,94.4898 95.8252,92.3232 99.5,84.5 Z"/></g>
<g><path style="opacity:1" fill="#ece5df" d="M 109.5,84.5 C 113.851,83.533 116.185,85.1996 116.5,89.5C 108.527,89.6737 108.527,90.1737 116.5,91C 108.158,94.4898 105.825,92.3232 109.5,84.5 Z"/></g>
<g><path style="opacity:1" fill="#eee7e0" d="M 145.5,84.5 C 149.851,83.533 152.185,85.1996 152.5,89.5C 150.473,89.3379 148.473,89.5045 146.5,90C 150.222,90.2382 153.889,90.7382 157.5,91.5C 157.833,91.1667 158.167,90.8333 158.5,90.5C 157.271,89.7189 155.938,89.2189 154.5,89C 153.167,87.6667 153.167,86.3333 154.5,85C 156.167,84.3333 157.833,84.3333 159.5,85C 160.696,85.6543 160.696,86.1543 159.5,86.5C 158.549,85.6744 157.549,85.5078 156.5,86C 157.891,87.02 159.391,87.8534 161,88.5C 161.749,89.635 161.583,90.635 160.5,91.5C 156.165,91.9419 151.832,92.2752 147.5,92.5C 144.5,92.8333 143.167,91.5 143.5,88.5C 143.803,86.8857 144.47,85.5523 145.5,84.5 Z"/></g>
<g><path style="opacity:1" fill="#544250" d="M 39.5,86.5 C 42.8606,87.2032 43.1939,88.5365 40.5,90.5C 39.5713,89.3112 39.238,87.9778 39.5,86.5 Z"/></g>
<g><path style="opacity:1" fill="#31345a" d="M 64.5,86.5 C 65.5862,86.62 66.2528,87.2867 66.5,88.5C 66.1667,89.1667 65.8333,89.8333 65.5,90.5C 64.5713,89.3112 64.238,87.9778 64.5,86.5 Z"/></g>
<g><path style="opacity:1" fill="#544250" d="M 90.5,86.5 C 93.8606,87.2032 94.1939,88.5365 91.5,90.5C 90.5713,89.3112 90.238,87.9778 90.5,86.5 Z"/></g>
<g><path style="opacity:1" fill="#2f2f56" d="M 120.5,86.5 C 121.586,86.62 122.253,87.2867 122.5,88.5C 122.167,89.1667 121.833,89.8333 121.5,90.5C 120.571,89.3112 120.238,87.9778 120.5,86.5 Z"/></g>
<g><path style="opacity:1" fill="#f2e9db" d="M 26.5,85.5 C 27.5676,84.5655 28.901,84.2322 30.5,84.5C 31.1667,88.5 31.8333,88.5 32.5,84.5C 33.5,84.5 34.5,84.5 35.5,84.5C 34.9782,87.5682 34.1449,90.5682 33,93.5C 31.4447,95.5152 29.6114,95.8485 27.5,94.5C 29.9476,91.2623 29.6143,88.2623 26.5,85.5 Z"/></g>
</svg>
